<?xml version="1.0" encoding="UTF-8"?>
<svg xmlns="http://www.w3.org/2000/svg" width="1280" height="640" viewBox="0 0 1280 640">
  <rect width="1280" height="640" fill="#0d1018"/>
  <rect x="0" y="0" width="12" height="640" fill="#32c48d"/>
  <rect x="38" y="34" width="1204" height="572" rx="22" fill="#10141f" stroke="#242a39"/>
  <circle cx="76" cy="76" r="18" fill="#32c48d"/>
  <text x="106" y="84" font-family="Arial Unicode MS" font-size="25" font-weight="700" fill="#f7f8fb">AI快站</text>
  <text x="1170" y="82" text-anchor="end" font-family="Arial Unicode MS" font-size="20" font-weight="500" fill="#9ea6b8">aifast.club</text>
  <line x1="72" y1="112" x2="1208" y2="112" stroke="#2b3140"/>
  <text x="72" y="174" font-family="Arial Unicode MS" font-size="16" font-weight="700" letter-spacing="2" fill="#32c48d">AIFAST DEVELOPER HUB</text>
  <text x="72" y="245" font-family="Arial Unicode MS" font-size="48" font-weight="700" fill="#f7f8fb">AI快站开发者中心</text>
  <text x="72" y="298" font-family="Arial Unicode MS" font-size="24" font-weight="400" fill="#b9c0cf">从第一次 API 调用到生产环境排错</text>
  <rect x="72" y="405" width="142" height="42" rx="8" fill="#171b28" stroke="#313749"/><text x="90" y="433" font-family="Arial Unicode MS" font-size="18" font-weight="600" fill="#eef0f6">可复制步骤</text><rect x="226" y="405" width="166" height="42" rx="8" fill="#171b28" stroke="#313749"/><text x="244" y="433" font-family="Arial Unicode MS" font-size="18" font-weight="600" fill="#eef0f6">可验证结果</text><rect x="404" y="405" width="186" height="42" rx="8" fill="#171b28" stroke="#313749"/><text x="422" y="433" font-family="Arial Unicode MS" font-size="18" font-weight="600" fill="#eef0f6">生产排错</text>
  <text x="72" y="548" font-family="Arial Unicode MS" font-size="17" font-weight="400" fill="#8f98aa">GitHub 技术矩阵 · 文档 / 工具 / 数据 / 可复现报告</text>
  <rect x="756" y="144" width="452" height="390" rx="16" fill="#0c0f17" stroke="#303748"/>
  <text x="785" y="202" font-family="Arial Unicode MS" font-size="22" font-weight="700" fill="#f7f8fb">开发路径</text>
  <rect x="785" y="246" width="423" height="66" rx="10" fill="#121621" stroke="#2a3040"/><text x="808" y="288" font-family="Arial Unicode MS" font-size="21" font-weight="700" fill="#32c48d">01</text><text x="922" y="287" font-family="Arial Unicode MS" font-size="19" font-weight="500" fill="#d6dae5">创建 API Key</text><rect x="785" y="328" width="423" height="66" rx="10" fill="#121621" stroke="#2a3040"/><text x="808" y="370" font-family="Arial Unicode MS" font-size="21" font-weight="700" fill="#32c48d">02</text><text x="922" y="369" font-family="Arial Unicode MS" font-size="19" font-weight="500" fill="#d6dae5">发送最小请求</text><rect x="785" y="410" width="423" height="66" rx="10" fill="#121621" stroke="#2a3040"/><text x="808" y="452" font-family="Arial Unicode MS" font-size="21" font-weight="700" fill="#32c48d">03</text><text x="922" y="451" font-family="Arial Unicode MS" font-size="19" font-weight="500" fill="#d6dae5">验证并进入生产</text>
  <text x="785" y="499" font-family="Arial Unicode MS" font-size="17" font-weight="400" fill="#8f98aa">文档、代码示例和故障定位入口集中维护</text>
</svg>